<mxfile host="app.diagrams.net" modified="2023-11-06T14:51:36.863Z" agent="Mozilla/5.0 (Windows NT 10.0; Win64; x64) AppleWebKit/537.36 (KHTML, like Gecko) Chrome/119.0.0.0 Safari/537.36" etag="D9RgE-faDxlYvvLGUoaZ" version="22.0.8" type="device">
  <diagram name="Trang-1" id="TA--hxxXfQSs8EmDwtru">
    <mxGraphModel dx="880" dy="484" grid="1" gridSize="10" guides="1" tooltips="1" connect="1" arrows="1" fold="1" page="1" pageScale="1" pageWidth="827" pageHeight="1169" math="0" shadow="0">
      <root>
        <mxCell id="0" />
        <mxCell id="1" parent="0" />
        <mxCell id="I6Ag34mdVUiVIXwk9uP2-3" style="edgeStyle=orthogonalEdgeStyle;rounded=0;orthogonalLoop=1;jettySize=auto;html=1;exitX=0.5;exitY=1;exitDx=0;exitDy=0;entryX=0.5;entryY=0;entryDx=0;entryDy=0;" edge="1" parent="1" source="I6Ag34mdVUiVIXwk9uP2-1" target="I6Ag34mdVUiVIXwk9uP2-2">
          <mxGeometry relative="1" as="geometry" />
        </mxCell>
        <mxCell id="I6Ag34mdVUiVIXwk9uP2-1" value="&lt;font style=&quot;vertical-align: inherit;&quot;&gt;&lt;font style=&quot;vertical-align: inherit;&quot;&gt;Start&lt;/font&gt;&lt;/font&gt;" style="ellipse;whiteSpace=wrap;html=1;" vertex="1" parent="1">
          <mxGeometry x="340" y="10" width="120" height="80" as="geometry" />
        </mxCell>
        <mxCell id="I6Ag34mdVUiVIXwk9uP2-5" style="edgeStyle=orthogonalEdgeStyle;rounded=0;orthogonalLoop=1;jettySize=auto;html=1;exitX=0.5;exitY=1;exitDx=0;exitDy=0;entryX=0.5;entryY=0;entryDx=0;entryDy=0;" edge="1" parent="1" source="I6Ag34mdVUiVIXwk9uP2-2" target="I6Ag34mdVUiVIXwk9uP2-4">
          <mxGeometry relative="1" as="geometry" />
        </mxCell>
        <mxCell id="I6Ag34mdVUiVIXwk9uP2-2" value="nhập a,b" style="shape=parallelogram;perimeter=parallelogramPerimeter;whiteSpace=wrap;html=1;fixedSize=1;" vertex="1" parent="1">
          <mxGeometry x="340" y="140" width="120" height="60" as="geometry" />
        </mxCell>
        <mxCell id="I6Ag34mdVUiVIXwk9uP2-6" style="edgeStyle=orthogonalEdgeStyle;rounded=0;orthogonalLoop=1;jettySize=auto;html=1;exitX=1;exitY=0.5;exitDx=0;exitDy=0;" edge="1" parent="1" source="I6Ag34mdVUiVIXwk9uP2-4">
          <mxGeometry relative="1" as="geometry">
            <mxPoint x="530" y="300" as="targetPoint" />
          </mxGeometry>
        </mxCell>
        <mxCell id="I6Ag34mdVUiVIXwk9uP2-7" value="true" style="edgeLabel;html=1;align=center;verticalAlign=middle;resizable=0;points=[];" vertex="1" connectable="0" parent="I6Ag34mdVUiVIXwk9uP2-6">
          <mxGeometry x="0.0498" relative="1" as="geometry">
            <mxPoint as="offset" />
          </mxGeometry>
        </mxCell>
        <mxCell id="I6Ag34mdVUiVIXwk9uP2-9" style="edgeStyle=orthogonalEdgeStyle;rounded=0;orthogonalLoop=1;jettySize=auto;html=1;exitX=0.5;exitY=1;exitDx=0;exitDy=0;" edge="1" parent="1" source="I6Ag34mdVUiVIXwk9uP2-4">
          <mxGeometry relative="1" as="geometry">
            <mxPoint x="400" y="400" as="targetPoint" />
          </mxGeometry>
        </mxCell>
        <mxCell id="I6Ag34mdVUiVIXwk9uP2-10" value="false" style="edgeLabel;html=1;align=center;verticalAlign=middle;resizable=0;points=[];" vertex="1" connectable="0" parent="I6Ag34mdVUiVIXwk9uP2-9">
          <mxGeometry x="-0.1406" relative="1" as="geometry">
            <mxPoint as="offset" />
          </mxGeometry>
        </mxCell>
        <mxCell id="I6Ag34mdVUiVIXwk9uP2-4" value="a=0" style="rhombus;whiteSpace=wrap;html=1;" vertex="1" parent="1">
          <mxGeometry x="360" y="260" width="80" height="80" as="geometry" />
        </mxCell>
        <mxCell id="I6Ag34mdVUiVIXwk9uP2-28" style="edgeStyle=orthogonalEdgeStyle;rounded=0;orthogonalLoop=1;jettySize=auto;html=1;exitX=1;exitY=0.5;exitDx=0;exitDy=0;entryX=1;entryY=0.5;entryDx=0;entryDy=0;" edge="1" parent="1" source="I6Ag34mdVUiVIXwk9uP2-8" target="I6Ag34mdVUiVIXwk9uP2-26">
          <mxGeometry relative="1" as="geometry">
            <mxPoint x="780" y="1030" as="targetPoint" />
            <Array as="points">
              <mxPoint x="800" y="300" />
              <mxPoint x="800" y="1030" />
            </Array>
          </mxGeometry>
        </mxCell>
        <mxCell id="I6Ag34mdVUiVIXwk9uP2-8" value="phương trình bậc nhất" style="rounded=0;whiteSpace=wrap;html=1;" vertex="1" parent="1">
          <mxGeometry x="530" y="270" width="120" height="60" as="geometry" />
        </mxCell>
        <mxCell id="I6Ag34mdVUiVIXwk9uP2-12" style="edgeStyle=orthogonalEdgeStyle;rounded=0;orthogonalLoop=1;jettySize=auto;html=1;exitX=0.5;exitY=1;exitDx=0;exitDy=0;entryX=0.5;entryY=0;entryDx=0;entryDy=0;" edge="1" parent="1" source="I6Ag34mdVUiVIXwk9uP2-11" target="I6Ag34mdVUiVIXwk9uP2-13">
          <mxGeometry relative="1" as="geometry">
            <mxPoint x="400" y="510" as="targetPoint" />
          </mxGeometry>
        </mxCell>
        <mxCell id="I6Ag34mdVUiVIXwk9uP2-11" value="dental t=b*b-4ac" style="rounded=0;whiteSpace=wrap;html=1;" vertex="1" parent="1">
          <mxGeometry x="340" y="400" width="120" height="60" as="geometry" />
        </mxCell>
        <mxCell id="I6Ag34mdVUiVIXwk9uP2-14" style="edgeStyle=orthogonalEdgeStyle;rounded=0;orthogonalLoop=1;jettySize=auto;html=1;exitX=1;exitY=0.5;exitDx=0;exitDy=0;" edge="1" parent="1" source="I6Ag34mdVUiVIXwk9uP2-13">
          <mxGeometry relative="1" as="geometry">
            <mxPoint x="530" y="560" as="targetPoint" />
          </mxGeometry>
        </mxCell>
        <mxCell id="I6Ag34mdVUiVIXwk9uP2-15" value="true" style="edgeLabel;html=1;align=center;verticalAlign=middle;resizable=0;points=[];" vertex="1" connectable="0" parent="I6Ag34mdVUiVIXwk9uP2-14">
          <mxGeometry x="-0.0056" relative="1" as="geometry">
            <mxPoint as="offset" />
          </mxGeometry>
        </mxCell>
        <mxCell id="I6Ag34mdVUiVIXwk9uP2-17" style="edgeStyle=orthogonalEdgeStyle;rounded=0;orthogonalLoop=1;jettySize=auto;html=1;exitX=0.5;exitY=1;exitDx=0;exitDy=0;" edge="1" parent="1" source="I6Ag34mdVUiVIXwk9uP2-13">
          <mxGeometry relative="1" as="geometry">
            <mxPoint x="400" y="670" as="targetPoint" />
          </mxGeometry>
        </mxCell>
        <mxCell id="I6Ag34mdVUiVIXwk9uP2-18" value="false" style="edgeLabel;html=1;align=center;verticalAlign=middle;resizable=0;points=[];" vertex="1" connectable="0" parent="I6Ag34mdVUiVIXwk9uP2-17">
          <mxGeometry x="-0.2057" relative="1" as="geometry">
            <mxPoint as="offset" />
          </mxGeometry>
        </mxCell>
        <mxCell id="I6Ag34mdVUiVIXwk9uP2-13" value="dental t&amp;lt;0" style="rhombus;whiteSpace=wrap;html=1;" vertex="1" parent="1">
          <mxGeometry x="360" y="520" width="80" height="80" as="geometry" />
        </mxCell>
        <mxCell id="I6Ag34mdVUiVIXwk9uP2-30" style="edgeStyle=orthogonalEdgeStyle;rounded=0;orthogonalLoop=1;jettySize=auto;html=1;exitX=1;exitY=0.5;exitDx=0;exitDy=0;entryX=1;entryY=0.5;entryDx=0;entryDy=0;" edge="1" parent="1" source="I6Ag34mdVUiVIXwk9uP2-16" target="I6Ag34mdVUiVIXwk9uP2-26">
          <mxGeometry relative="1" as="geometry">
            <Array as="points">
              <mxPoint x="800" y="560" />
              <mxPoint x="800" y="1030" />
            </Array>
          </mxGeometry>
        </mxCell>
        <mxCell id="I6Ag34mdVUiVIXwk9uP2-16" value="phương trình vô nghiệm" style="rounded=0;whiteSpace=wrap;html=1;" vertex="1" parent="1">
          <mxGeometry x="530" y="530" width="120" height="60" as="geometry" />
        </mxCell>
        <mxCell id="I6Ag34mdVUiVIXwk9uP2-20" style="edgeStyle=orthogonalEdgeStyle;rounded=0;orthogonalLoop=1;jettySize=auto;html=1;exitX=0.5;exitY=1;exitDx=0;exitDy=0;" edge="1" parent="1" source="I6Ag34mdVUiVIXwk9uP2-19">
          <mxGeometry relative="1" as="geometry">
            <mxPoint x="400" y="840" as="targetPoint" />
          </mxGeometry>
        </mxCell>
        <mxCell id="I6Ag34mdVUiVIXwk9uP2-21" value="false" style="edgeLabel;html=1;align=center;verticalAlign=middle;resizable=0;points=[];" vertex="1" connectable="0" parent="I6Ag34mdVUiVIXwk9uP2-20">
          <mxGeometry x="-0.1823" y="-1" relative="1" as="geometry">
            <mxPoint as="offset" />
          </mxGeometry>
        </mxCell>
        <mxCell id="I6Ag34mdVUiVIXwk9uP2-22" style="edgeStyle=orthogonalEdgeStyle;rounded=0;orthogonalLoop=1;jettySize=auto;html=1;exitX=1;exitY=0.5;exitDx=0;exitDy=0;" edge="1" parent="1" source="I6Ag34mdVUiVIXwk9uP2-19">
          <mxGeometry relative="1" as="geometry">
            <mxPoint x="530" y="710" as="targetPoint" />
          </mxGeometry>
        </mxCell>
        <mxCell id="I6Ag34mdVUiVIXwk9uP2-23" value="true" style="edgeLabel;html=1;align=center;verticalAlign=middle;resizable=0;points=[];" vertex="1" connectable="0" parent="I6Ag34mdVUiVIXwk9uP2-22">
          <mxGeometry x="-0.2044" y="-4" relative="1" as="geometry">
            <mxPoint as="offset" />
          </mxGeometry>
        </mxCell>
        <mxCell id="I6Ag34mdVUiVIXwk9uP2-19" value="dental t=0" style="rhombus;whiteSpace=wrap;html=1;" vertex="1" parent="1">
          <mxGeometry x="360" y="670" width="80" height="80" as="geometry" />
        </mxCell>
        <mxCell id="I6Ag34mdVUiVIXwk9uP2-31" style="edgeStyle=orthogonalEdgeStyle;rounded=0;orthogonalLoop=1;jettySize=auto;html=1;exitX=1;exitY=0.5;exitDx=0;exitDy=0;entryX=1;entryY=0.5;entryDx=0;entryDy=0;" edge="1" parent="1" source="I6Ag34mdVUiVIXwk9uP2-24" target="I6Ag34mdVUiVIXwk9uP2-26">
          <mxGeometry relative="1" as="geometry">
            <Array as="points">
              <mxPoint x="800" y="710" />
              <mxPoint x="800" y="1030" />
            </Array>
          </mxGeometry>
        </mxCell>
        <mxCell id="I6Ag34mdVUiVIXwk9uP2-24" value="phương trình có nghiệm kép" style="rounded=0;whiteSpace=wrap;html=1;" vertex="1" parent="1">
          <mxGeometry x="530" y="680" width="120" height="60" as="geometry" />
        </mxCell>
        <mxCell id="I6Ag34mdVUiVIXwk9uP2-27" style="edgeStyle=orthogonalEdgeStyle;rounded=0;orthogonalLoop=1;jettySize=auto;html=1;exitX=0.5;exitY=1;exitDx=0;exitDy=0;" edge="1" parent="1" source="I6Ag34mdVUiVIXwk9uP2-25" target="I6Ag34mdVUiVIXwk9uP2-26">
          <mxGeometry relative="1" as="geometry" />
        </mxCell>
        <mxCell id="I6Ag34mdVUiVIXwk9uP2-25" value="phương trình có 2 nghiệm phân biệt x1,x2" style="rounded=0;whiteSpace=wrap;html=1;" vertex="1" parent="1">
          <mxGeometry x="340" y="840" width="120" height="60" as="geometry" />
        </mxCell>
        <mxCell id="I6Ag34mdVUiVIXwk9uP2-26" value="End" style="ellipse;whiteSpace=wrap;html=1;" vertex="1" parent="1">
          <mxGeometry x="340" y="990" width="120" height="80" as="geometry" />
        </mxCell>
      </root>
    </mxGraphModel>
  </diagram>
</mxfile>
